<mxfile host="app.diagrams.net" modified="2021-05-11T13:53:09.183Z" agent="5.0 (Windows NT 10.0; Win64; x64) AppleWebKit/537.36 (KHTML, like Gecko) Chrome/90.0.4430.93 Safari/537.36" etag="ctqLAkb0feJ3Qsc5brhD" version="14.6.9" type="github">
  <diagram id="IyVmkQtxX5lsDykcFcm8" name="Page-1">
    <mxGraphModel dx="1673" dy="2012" grid="1" gridSize="10" guides="1" tooltips="1" connect="1" arrows="1" fold="1" page="1" pageScale="1" pageWidth="850" pageHeight="1100" math="0" shadow="0">
      <root>
        <mxCell id="0" />
        <mxCell id="1" parent="0" />
        <object label="LoginFrm" txtPW="JTextField" id="lw_hR1VUG7vaAbUGU-Iq-1">
          <mxCell style="swimlane;fontStyle=1;align=center;verticalAlign=top;childLayout=stackLayout;horizontal=1;startSize=26;horizontalStack=0;resizeParent=1;resizeParentMax=0;resizeLast=0;collapsible=1;marginBottom=0;" parent="1" vertex="1">
            <mxGeometry x="150" y="110" width="240" height="150" as="geometry" />
          </mxCell>
        </object>
        <object label="- txtUN: JTextField&#xa;- txtPW: JTextField&#xa;- btnLogin: JButton" txtPW="JTextField" id="lw_hR1VUG7vaAbUGU-Iq-2">
          <mxCell style="text;strokeColor=none;fillColor=none;align=left;verticalAlign=top;spacingLeft=4;spacingRight=4;overflow=hidden;rotatable=0;points=[[0,0.5],[1,0.5]];portConstraint=eastwest;" parent="lw_hR1VUG7vaAbUGU-Iq-1" vertex="1">
            <mxGeometry y="26" width="240" height="64" as="geometry" />
          </mxCell>
        </object>
        <mxCell id="lw_hR1VUG7vaAbUGU-Iq-3" value="" style="line;strokeWidth=1;fillColor=none;align=left;verticalAlign=middle;spacingTop=-1;spacingLeft=3;spacingRight=3;rotatable=0;labelPosition=right;points=[];portConstraint=eastwest;" parent="lw_hR1VUG7vaAbUGU-Iq-1" vertex="1">
          <mxGeometry y="90" width="240" height="8" as="geometry" />
        </mxCell>
        <mxCell id="lw_hR1VUG7vaAbUGU-Iq-4" value="- LoginFrm()&#xa;- actionPerformed (ActionEvent e): void&#xa;" style="text;strokeColor=none;fillColor=none;align=left;verticalAlign=top;spacingLeft=4;spacingRight=4;overflow=hidden;rotatable=0;points=[[0,0.5],[1,0.5]];portConstraint=eastwest;" parent="lw_hR1VUG7vaAbUGU-Iq-1" vertex="1">
          <mxGeometry y="98" width="240" height="52" as="geometry" />
        </mxCell>
        <mxCell id="lw_hR1VUG7vaAbUGU-Iq-5" value="JFrame" style="swimlane;fontStyle=0;childLayout=stackLayout;horizontal=1;startSize=26;fillColor=none;horizontalStack=0;resizeParent=1;resizeParentMax=0;resizeLast=0;collapsible=1;marginBottom=0;" parent="1" vertex="1">
          <mxGeometry x="390" y="-20" width="140" height="52" as="geometry" />
        </mxCell>
        <mxCell id="lw_hR1VUG7vaAbUGU-Iq-10" value="" style="endArrow=block;endFill=0;endSize=12;html=1;rounded=0;edgeStyle=orthogonalEdgeStyle;entryX=0;entryY=0.5;entryDx=0;entryDy=0;exitX=0.383;exitY=0.007;exitDx=0;exitDy=0;exitPerimeter=0;" parent="1" source="lw_hR1VUG7vaAbUGU-Iq-1" target="lw_hR1VUG7vaAbUGU-Iq-5" edge="1">
          <mxGeometry width="160" relative="1" as="geometry">
            <mxPoint x="130" y="10" as="sourcePoint" />
            <mxPoint x="290" y="10" as="targetPoint" />
          </mxGeometry>
        </mxCell>
        <mxCell id="lw_hR1VUG7vaAbUGU-Iq-11" value="&#xa;&lt;&lt;interface&gt;&gt;&#xa;ActionListener&#xa;" style="swimlane;fontStyle=0;childLayout=stackLayout;horizontal=1;startSize=40;fillColor=none;horizontalStack=0;resizeParent=1;resizeParentMax=0;resizeLast=0;collapsible=1;marginBottom=0;" parent="1" vertex="1">
          <mxGeometry x="590" y="-40" width="220" height="60" as="geometry" />
        </mxCell>
        <mxCell id="lw_hR1VUG7vaAbUGU-Iq-13" value="- actionPerformed(e: ActionEvent): void" style="text;html=1;align=center;verticalAlign=middle;resizable=0;points=[];autosize=1;strokeColor=none;" parent="lw_hR1VUG7vaAbUGU-Iq-11" vertex="1">
          <mxGeometry y="40" width="220" height="20" as="geometry" />
        </mxCell>
        <mxCell id="lw_hR1VUG7vaAbUGU-Iq-14" value="" style="endArrow=block;dashed=1;endFill=0;endSize=12;html=1;rounded=0;edgeStyle=orthogonalEdgeStyle;entryX=0.2;entryY=1.05;entryDx=0;entryDy=0;entryPerimeter=0;" parent="1" source="lw_hR1VUG7vaAbUGU-Iq-2" target="lw_hR1VUG7vaAbUGU-Iq-13" edge="1">
          <mxGeometry width="160" relative="1" as="geometry">
            <mxPoint x="460" y="130" as="sourcePoint" />
            <mxPoint x="620" y="130" as="targetPoint" />
            <Array as="points">
              <mxPoint x="634" y="168" />
            </Array>
          </mxGeometry>
        </mxCell>
        <object label="ManageHomeFrm" txtPW="JTextField" id="lw_hR1VUG7vaAbUGU-Iq-15">
          <mxCell style="swimlane;fontStyle=1;align=center;verticalAlign=top;childLayout=stackLayout;horizontal=1;startSize=26;horizontalStack=0;resizeParent=1;resizeParentMax=0;resizeLast=0;collapsible=1;marginBottom=0;" parent="1" vertex="1">
            <mxGeometry x="360" y="310" width="240" height="160" as="geometry" />
          </mxCell>
        </object>
        <object label="- btnCreateTour: JButton&#xa;- btnPurchaseTicket&#xa;- btnRevenueStatisticTour&#xa;- btnRevenueStatisticLocation&#xa;- user: User" txtPW="JTextField" id="lw_hR1VUG7vaAbUGU-Iq-16">
          <mxCell style="text;strokeColor=none;fillColor=none;align=left;verticalAlign=top;spacingLeft=4;spacingRight=4;overflow=hidden;rotatable=0;points=[[0,0.5],[1,0.5]];portConstraint=eastwest;" parent="lw_hR1VUG7vaAbUGU-Iq-15" vertex="1">
            <mxGeometry y="26" width="240" height="84" as="geometry" />
          </mxCell>
        </object>
        <mxCell id="lw_hR1VUG7vaAbUGU-Iq-17" value="" style="line;strokeWidth=1;fillColor=none;align=left;verticalAlign=middle;spacingTop=-1;spacingLeft=3;spacingRight=3;rotatable=0;labelPosition=right;points=[];portConstraint=eastwest;" parent="lw_hR1VUG7vaAbUGU-Iq-15" vertex="1">
          <mxGeometry y="110" width="240" height="8" as="geometry" />
        </mxCell>
        <mxCell id="lw_hR1VUG7vaAbUGU-Iq-18" value="- ManageHomeFrm(User u)&#xa;- actionPerformed (ActionEvent e): void&#xa;" style="text;strokeColor=none;fillColor=none;align=left;verticalAlign=top;spacingLeft=4;spacingRight=4;overflow=hidden;rotatable=0;points=[[0,0.5],[1,0.5]];portConstraint=eastwest;" parent="lw_hR1VUG7vaAbUGU-Iq-15" vertex="1">
          <mxGeometry y="118" width="240" height="42" as="geometry" />
        </mxCell>
        <mxCell id="lw_hR1VUG7vaAbUGU-Iq-19" value="" style="endArrow=none;html=1;rounded=0;edgeStyle=orthogonalEdgeStyle;exitX=1.013;exitY=0.308;exitDx=0;exitDy=0;exitPerimeter=0;" parent="1" source="lw_hR1VUG7vaAbUGU-Iq-4" target="lw_hR1VUG7vaAbUGU-Iq-15" edge="1">
          <mxGeometry width="50" height="50" relative="1" as="geometry">
            <mxPoint x="450" y="250" as="sourcePoint" />
            <mxPoint x="500" y="200" as="targetPoint" />
          </mxGeometry>
        </mxCell>
        <mxCell id="lw_hR1VUG7vaAbUGU-Iq-20" value="" style="endArrow=block;endFill=0;endSize=12;html=1;rounded=0;edgeStyle=orthogonalEdgeStyle;exitX=0.25;exitY=0;exitDx=0;exitDy=0;" parent="1" source="lw_hR1VUG7vaAbUGU-Iq-15" edge="1">
          <mxGeometry width="160" relative="1" as="geometry">
            <mxPoint x="400" y="300" as="sourcePoint" />
            <mxPoint x="410" y="30" as="targetPoint" />
          </mxGeometry>
        </mxCell>
        <mxCell id="lw_hR1VUG7vaAbUGU-Iq-22" value="" style="endArrow=block;dashed=1;endFill=0;endSize=12;html=1;rounded=0;edgeStyle=orthogonalEdgeStyle;exitX=0.846;exitY=0;exitDx=0;exitDy=0;exitPerimeter=0;entryX=0.427;entryY=1.2;entryDx=0;entryDy=0;entryPerimeter=0;" parent="1" source="lw_hR1VUG7vaAbUGU-Iq-15" target="lw_hR1VUG7vaAbUGU-Iq-13" edge="1">
          <mxGeometry width="160" relative="1" as="geometry">
            <mxPoint x="590" y="230" as="sourcePoint" />
            <mxPoint x="750" y="230" as="targetPoint" />
          </mxGeometry>
        </mxCell>
        <object label="RevenueStatisticTourFrm" txtPW="JTextField" id="lw_hR1VUG7vaAbUGU-Iq-23">
          <mxCell style="swimlane;fontStyle=1;align=center;verticalAlign=top;childLayout=stackLayout;horizontal=1;startSize=26;horizontalStack=0;resizeParent=1;resizeParentMax=0;resizeLast=0;collapsible=1;marginBottom=0;" parent="1" vertex="1">
            <mxGeometry x="640" y="310" width="340" height="200" as="geometry" />
          </mxCell>
        </object>
        <object label="- dateStartDate: JDatePicker&#xa;- dateEndDate: JDAtePicker&#xa;- btnSubmit: JButton&#xa;- tableResult: JTable&#xa;- btnBack: JButton&#xa;- tourStatistic: TourStatistic[],&#xa;- user: User" txtPW="JTextField" id="lw_hR1VUG7vaAbUGU-Iq-24">
          <mxCell style="text;strokeColor=none;fillColor=none;align=left;verticalAlign=top;spacingLeft=4;spacingRight=4;overflow=hidden;rotatable=0;points=[[0,0.5],[1,0.5]];portConstraint=eastwest;" parent="lw_hR1VUG7vaAbUGU-Iq-23" vertex="1">
            <mxGeometry y="26" width="340" height="114" as="geometry" />
          </mxCell>
        </object>
        <mxCell id="lw_hR1VUG7vaAbUGU-Iq-25" value="" style="line;strokeWidth=1;fillColor=none;align=left;verticalAlign=middle;spacingTop=-1;spacingLeft=3;spacingRight=3;rotatable=0;labelPosition=right;points=[];portConstraint=eastwest;" parent="lw_hR1VUG7vaAbUGU-Iq-23" vertex="1">
          <mxGeometry y="140" width="340" height="8" as="geometry" />
        </mxCell>
        <mxCell id="lw_hR1VUG7vaAbUGU-Iq-26" value="- RevenueStatisticTourFrm(User u, tourStatistic: TourStatistic[])&#xa;- actionPerformed (ActionEvent e): void&#xa;" style="text;strokeColor=none;fillColor=none;align=left;verticalAlign=top;spacingLeft=4;spacingRight=4;overflow=hidden;rotatable=0;points=[[0,0.5],[1,0.5]];portConstraint=eastwest;" parent="lw_hR1VUG7vaAbUGU-Iq-23" vertex="1">
          <mxGeometry y="148" width="340" height="52" as="geometry" />
        </mxCell>
        <mxCell id="lw_hR1VUG7vaAbUGU-Iq-27" value="" style="endArrow=none;html=1;rounded=0;edgeStyle=orthogonalEdgeStyle;exitX=1.021;exitY=0.214;exitDx=0;exitDy=0;exitPerimeter=0;entryX=-0.012;entryY=0.19;entryDx=0;entryDy=0;entryPerimeter=0;" parent="1" source="lw_hR1VUG7vaAbUGU-Iq-16" target="lw_hR1VUG7vaAbUGU-Iq-24" edge="1">
          <mxGeometry width="50" height="50" relative="1" as="geometry">
            <mxPoint x="750" y="370" as="sourcePoint" />
            <mxPoint x="620" y="392" as="targetPoint" />
          </mxGeometry>
        </mxCell>
        <mxCell id="_ckGrwLbF2f9QICR6YGw-1" value="" style="endArrow=block;endFill=0;endSize=12;html=1;rounded=0;edgeStyle=orthogonalEdgeStyle;exitX=0.383;exitY=-0.006;exitDx=0;exitDy=0;exitPerimeter=0;" edge="1" parent="1" source="lw_hR1VUG7vaAbUGU-Iq-23">
          <mxGeometry width="160" relative="1" as="geometry">
            <mxPoint x="430" y="320" as="sourcePoint" />
            <mxPoint x="470" y="30" as="targetPoint" />
          </mxGeometry>
        </mxCell>
        <mxCell id="_ckGrwLbF2f9QICR6YGw-2" value="" style="endArrow=block;dashed=1;endFill=0;endSize=12;html=1;rounded=0;edgeStyle=orthogonalEdgeStyle;exitX=0.75;exitY=0;exitDx=0;exitDy=0;entryX=0.759;entryY=1.05;entryDx=0;entryDy=0;entryPerimeter=0;" edge="1" parent="1" source="lw_hR1VUG7vaAbUGU-Iq-23" target="lw_hR1VUG7vaAbUGU-Iq-13">
          <mxGeometry width="160" relative="1" as="geometry">
            <mxPoint x="573.04" y="320" as="sourcePoint" />
            <mxPoint x="693.94" y="34" as="targetPoint" />
          </mxGeometry>
        </mxCell>
        <object label="TourDetailFrm" txtPW="JTextField" id="_ckGrwLbF2f9QICR6YGw-3">
          <mxCell style="swimlane;fontStyle=1;align=center;verticalAlign=top;childLayout=stackLayout;horizontal=1;startSize=26;horizontalStack=0;resizeParent=1;resizeParentMax=0;resizeLast=0;collapsible=1;marginBottom=0;" vertex="1" parent="1">
            <mxGeometry x="1030" y="310" width="340" height="160" as="geometry" />
          </mxCell>
        </object>
        <object label="-tableListBill: JTable&#xa;- buttonBack: JButton&#xa;- ts: TourStatistic&#xa;- user: User" txtPW="JTextField" id="_ckGrwLbF2f9QICR6YGw-4">
          <mxCell style="text;strokeColor=none;fillColor=none;align=left;verticalAlign=top;spacingLeft=4;spacingRight=4;overflow=hidden;rotatable=0;points=[[0,0.5],[1,0.5]];portConstraint=eastwest;" vertex="1" parent="_ckGrwLbF2f9QICR6YGw-3">
            <mxGeometry y="26" width="340" height="74" as="geometry" />
          </mxCell>
        </object>
        <mxCell id="_ckGrwLbF2f9QICR6YGw-5" value="" style="line;strokeWidth=1;fillColor=none;align=left;verticalAlign=middle;spacingTop=-1;spacingLeft=3;spacingRight=3;rotatable=0;labelPosition=right;points=[];portConstraint=eastwest;" vertex="1" parent="_ckGrwLbF2f9QICR6YGw-3">
          <mxGeometry y="100" width="340" height="8" as="geometry" />
        </mxCell>
        <mxCell id="_ckGrwLbF2f9QICR6YGw-6" value="- TourDetailFrm(User u, idt: int, sd: Date, ed: Date)&#xa;- actionPerformed (ActionEvent e): void&#xa;" style="text;strokeColor=none;fillColor=none;align=left;verticalAlign=top;spacingLeft=4;spacingRight=4;overflow=hidden;rotatable=0;points=[[0,0.5],[1,0.5]];portConstraint=eastwest;" vertex="1" parent="_ckGrwLbF2f9QICR6YGw-3">
          <mxGeometry y="108" width="340" height="52" as="geometry" />
        </mxCell>
        <mxCell id="_ckGrwLbF2f9QICR6YGw-8" value="" style="endArrow=none;html=1;entryX=-0.012;entryY=0.909;entryDx=0;entryDy=0;entryPerimeter=0;" edge="1" parent="1" source="lw_hR1VUG7vaAbUGU-Iq-24" target="_ckGrwLbF2f9QICR6YGw-4">
          <mxGeometry width="50" height="50" relative="1" as="geometry">
            <mxPoint x="660" y="280" as="sourcePoint" />
            <mxPoint x="710" y="230" as="targetPoint" />
          </mxGeometry>
        </mxCell>
        <mxCell id="_ckGrwLbF2f9QICR6YGw-9" value="" style="endArrow=block;endFill=0;endSize=12;html=1;rounded=0;edgeStyle=orthogonalEdgeStyle;exitX=0.5;exitY=0;exitDx=0;exitDy=0;entryX=0.75;entryY=1;entryDx=0;entryDy=0;" edge="1" parent="1" source="_ckGrwLbF2f9QICR6YGw-3" target="lw_hR1VUG7vaAbUGU-Iq-5">
          <mxGeometry width="160" relative="1" as="geometry">
            <mxPoint x="1230" y="218.98000000000002" as="sourcePoint" />
            <mxPoint x="928.0799999999999" y="-60" as="targetPoint" />
          </mxGeometry>
        </mxCell>
        <mxCell id="_ckGrwLbF2f9QICR6YGw-10" value="" style="endArrow=block;dashed=1;endFill=0;endSize=12;html=1;rounded=0;edgeStyle=orthogonalEdgeStyle;exitX=0.25;exitY=0;exitDx=0;exitDy=0;entryX=1;entryY=0.5;entryDx=0;entryDy=0;" edge="1" parent="1" source="_ckGrwLbF2f9QICR6YGw-3" target="lw_hR1VUG7vaAbUGU-Iq-11">
          <mxGeometry width="160" relative="1" as="geometry">
            <mxPoint x="1073.02" y="249" as="sourcePoint" />
            <mxPoint x="970" y="-40" as="targetPoint" />
            <Array as="points">
              <mxPoint x="1115" y="210" />
              <mxPoint x="950" y="210" />
              <mxPoint x="950" y="-10" />
            </Array>
          </mxGeometry>
        </mxCell>
        <object label="BillDetailFrm" txtPW="JTextField" id="_ckGrwLbF2f9QICR6YGw-11">
          <mxCell style="swimlane;fontStyle=1;align=center;verticalAlign=top;childLayout=stackLayout;horizontal=1;startSize=26;horizontalStack=0;resizeParent=1;resizeParentMax=0;resizeLast=0;collapsible=1;marginBottom=0;" vertex="1" parent="1">
            <mxGeometry x="1080" y="-79" width="340" height="230" as="geometry" />
          </mxCell>
        </object>
        <object label="- txtID: JTextField&#xa;- txtName: JTextField&#xa;- dateStartDate: JDatePicker&#xa;- txtAmount: JTextField&#xa;- txtPrice: JTextField&#xa;- btnBack: JButton&#xa;- user: User&#xa;- td: Booking" txtPW="JTextField" id="_ckGrwLbF2f9QICR6YGw-12">
          <mxCell style="text;strokeColor=none;fillColor=none;align=left;verticalAlign=top;spacingLeft=4;spacingRight=4;overflow=hidden;rotatable=0;points=[[0,0.5],[1,0.5]];portConstraint=eastwest;" vertex="1" parent="_ckGrwLbF2f9QICR6YGw-11">
            <mxGeometry y="26" width="340" height="144" as="geometry" />
          </mxCell>
        </object>
        <mxCell id="_ckGrwLbF2f9QICR6YGw-13" value="" style="line;strokeWidth=1;fillColor=none;align=left;verticalAlign=middle;spacingTop=-1;spacingLeft=3;spacingRight=3;rotatable=0;labelPosition=right;points=[];portConstraint=eastwest;" vertex="1" parent="_ckGrwLbF2f9QICR6YGw-11">
          <mxGeometry y="170" width="340" height="8" as="geometry" />
        </mxCell>
        <mxCell id="_ckGrwLbF2f9QICR6YGw-14" value="- BillDetailFrm(User u, idb: int)&#xa;- actionPerformed (ActionEvent e): void" style="text;strokeColor=none;fillColor=none;align=left;verticalAlign=top;spacingLeft=4;spacingRight=4;overflow=hidden;rotatable=0;points=[[0,0.5],[1,0.5]];portConstraint=eastwest;" vertex="1" parent="_ckGrwLbF2f9QICR6YGw-11">
          <mxGeometry y="178" width="340" height="52" as="geometry" />
        </mxCell>
        <mxCell id="_ckGrwLbF2f9QICR6YGw-15" value="" style="endArrow=none;html=1;entryX=-0.004;entryY=0.923;entryDx=0;entryDy=0;entryPerimeter=0;exitX=0.667;exitY=0;exitDx=0;exitDy=0;exitPerimeter=0;" edge="1" parent="1" source="lw_hR1VUG7vaAbUGU-Iq-15" target="_ckGrwLbF2f9QICR6YGw-12">
          <mxGeometry width="50" height="50" relative="1" as="geometry">
            <mxPoint x="940" y="120" as="sourcePoint" />
            <mxPoint x="990" y="70" as="targetPoint" />
          </mxGeometry>
        </mxCell>
        <mxCell id="_ckGrwLbF2f9QICR6YGw-16" value="" style="endArrow=none;html=1;entryX=0.625;entryY=1.038;entryDx=0;entryDy=0;entryPerimeter=0;exitX=0.442;exitY=1.095;exitDx=0;exitDy=0;exitPerimeter=0;" edge="1" parent="1" source="lw_hR1VUG7vaAbUGU-Iq-18" target="_ckGrwLbF2f9QICR6YGw-6">
          <mxGeometry width="50" height="50" relative="1" as="geometry">
            <mxPoint x="720" y="600" as="sourcePoint" />
            <mxPoint x="770" y="550" as="targetPoint" />
            <Array as="points">
              <mxPoint x="790" y="570" />
            </Array>
          </mxGeometry>
        </mxCell>
        <object label="Dao" txtPW="JTextField" id="_ckGrwLbF2f9QICR6YGw-17">
          <mxCell style="swimlane;fontStyle=1;align=center;verticalAlign=top;childLayout=stackLayout;horizontal=1;startSize=26;horizontalStack=0;resizeParent=1;resizeParentMax=0;resizeLast=0;collapsible=1;marginBottom=0;" vertex="1" parent="1">
            <mxGeometry x="650" y="630" width="240" height="100" as="geometry" />
          </mxCell>
        </object>
        <object label="-con: Connection" txtPW="JTextField" id="_ckGrwLbF2f9QICR6YGw-18">
          <mxCell style="text;strokeColor=none;fillColor=none;align=left;verticalAlign=top;spacingLeft=4;spacingRight=4;overflow=hidden;rotatable=0;points=[[0,0.5],[1,0.5]];portConstraint=eastwest;" vertex="1" parent="_ckGrwLbF2f9QICR6YGw-17">
            <mxGeometry y="26" width="240" height="24" as="geometry" />
          </mxCell>
        </object>
        <mxCell id="_ckGrwLbF2f9QICR6YGw-19" value="" style="line;strokeWidth=1;fillColor=none;align=left;verticalAlign=middle;spacingTop=-1;spacingLeft=3;spacingRight=3;rotatable=0;labelPosition=right;points=[];portConstraint=eastwest;" vertex="1" parent="_ckGrwLbF2f9QICR6YGw-17">
          <mxGeometry y="50" width="240" height="8" as="geometry" />
        </mxCell>
        <mxCell id="_ckGrwLbF2f9QICR6YGw-20" value="-Dao()" style="text;strokeColor=none;fillColor=none;align=left;verticalAlign=top;spacingLeft=4;spacingRight=4;overflow=hidden;rotatable=0;points=[[0,0.5],[1,0.5]];portConstraint=eastwest;" vertex="1" parent="_ckGrwLbF2f9QICR6YGw-17">
          <mxGeometry y="58" width="240" height="42" as="geometry" />
        </mxCell>
        <object label="UserDAO" txtPW="JTextField" id="_ckGrwLbF2f9QICR6YGw-22">
          <mxCell style="swimlane;fontStyle=1;align=center;verticalAlign=top;childLayout=stackLayout;horizontal=1;startSize=26;horizontalStack=0;resizeParent=1;resizeParentMax=0;resizeLast=0;collapsible=1;marginBottom=0;" vertex="1" parent="1">
            <mxGeometry x="240" y="646" width="240" height="68" as="geometry" />
          </mxCell>
        </object>
        <mxCell id="_ckGrwLbF2f9QICR6YGw-25" value="- UserDao()&#xa;- checkLogin (User user): bool" style="text;strokeColor=none;fillColor=none;align=left;verticalAlign=top;spacingLeft=4;spacingRight=4;overflow=hidden;rotatable=0;points=[[0,0.5],[1,0.5]];portConstraint=eastwest;" vertex="1" parent="_ckGrwLbF2f9QICR6YGw-22">
          <mxGeometry y="26" width="240" height="42" as="geometry" />
        </mxCell>
        <mxCell id="_ckGrwLbF2f9QICR6YGw-32" value="" style="endArrow=block;endFill=0;endSize=12;html=1;entryX=0;entryY=1;entryDx=0;entryDy=0;entryPerimeter=0;exitX=1.008;exitY=0.262;exitDx=0;exitDy=0;exitPerimeter=0;" edge="1" parent="1" source="_ckGrwLbF2f9QICR6YGw-25" target="_ckGrwLbF2f9QICR6YGw-18">
          <mxGeometry width="160" relative="1" as="geometry">
            <mxPoint x="470" y="780" as="sourcePoint" />
            <mxPoint x="630" y="780" as="targetPoint" />
          </mxGeometry>
        </mxCell>
        <mxCell id="_ckGrwLbF2f9QICR6YGw-33" value="" style="endArrow=none;html=1;entryX=0.288;entryY=1.077;entryDx=0;entryDy=0;entryPerimeter=0;exitX=0.25;exitY=0;exitDx=0;exitDy=0;" edge="1" parent="1" source="_ckGrwLbF2f9QICR6YGw-22" target="lw_hR1VUG7vaAbUGU-Iq-4">
          <mxGeometry width="50" height="50" relative="1" as="geometry">
            <mxPoint x="180" y="440" as="sourcePoint" />
            <mxPoint x="230" y="390" as="targetPoint" />
          </mxGeometry>
        </mxCell>
        <object label="TourStatisticDAO" txtPW="JTextField" id="_ckGrwLbF2f9QICR6YGw-43">
          <mxCell style="swimlane;fontStyle=1;align=center;verticalAlign=top;childLayout=stackLayout;horizontal=1;startSize=26;horizontalStack=0;resizeParent=1;resizeParentMax=0;resizeLast=0;collapsible=1;marginBottom=0;" vertex="1" parent="1">
            <mxGeometry x="620" y="790" width="240" height="68" as="geometry" />
          </mxCell>
        </object>
        <mxCell id="_ckGrwLbF2f9QICR6YGw-44" value="-getTourStat(): TourStatistic[]" style="text;strokeColor=none;fillColor=none;align=left;verticalAlign=top;spacingLeft=4;spacingRight=4;overflow=hidden;rotatable=0;points=[[0,0.5],[1,0.5]];portConstraint=eastwest;" vertex="1" parent="_ckGrwLbF2f9QICR6YGw-43">
          <mxGeometry y="26" width="240" height="42" as="geometry" />
        </mxCell>
        <mxCell id="_ckGrwLbF2f9QICR6YGw-51" value="" style="endArrow=block;endFill=0;endSize=12;html=1;entryX=0.413;entryY=1.058;entryDx=0;entryDy=0;entryPerimeter=0;exitX=0.609;exitY=-0.048;exitDx=0;exitDy=0;exitPerimeter=0;" edge="1" parent="1" source="_ckGrwLbF2f9QICR6YGw-43" target="_ckGrwLbF2f9QICR6YGw-20">
          <mxGeometry width="160" relative="1" as="geometry">
            <mxPoint x="491.9200000000001" y="693.0039999999999" as="sourcePoint" />
            <mxPoint x="660" y="690.0000000000005" as="targetPoint" />
          </mxGeometry>
        </mxCell>
        <mxCell id="_ckGrwLbF2f9QICR6YGw-61" value="Client" style="swimlane;fontStyle=0;childLayout=stackLayout;horizontal=1;startSize=26;fillColor=none;horizontalStack=0;resizeParent=1;resizeParentMax=0;resizeLast=0;collapsible=1;marginBottom=0;" vertex="1" parent="1">
          <mxGeometry x="634" y="950" width="140" height="156" as="geometry" />
        </mxCell>
        <mxCell id="_ckGrwLbF2f9QICR6YGw-62" value="- id: integer(10)" style="text;strokeColor=none;fillColor=none;align=left;verticalAlign=top;spacingLeft=4;spacingRight=4;overflow=hidden;rotatable=0;points=[[0,0.5],[1,0.5]];portConstraint=eastwest;" vertex="1" parent="_ckGrwLbF2f9QICR6YGw-61">
          <mxGeometry y="26" width="140" height="26" as="geometry" />
        </mxCell>
        <mxCell id="_ckGrwLbF2f9QICR6YGw-63" value="- fullName: varchar(255)" style="text;strokeColor=none;fillColor=none;align=left;verticalAlign=top;spacingLeft=4;spacingRight=4;overflow=hidden;rotatable=0;points=[[0,0.5],[1,0.5]];portConstraint=eastwest;" vertex="1" parent="_ckGrwLbF2f9QICR6YGw-61">
          <mxGeometry y="52" width="140" height="26" as="geometry" />
        </mxCell>
        <mxCell id="_ckGrwLbF2f9QICR6YGw-64" value="- address: varchar(255)" style="text;strokeColor=none;fillColor=none;align=left;verticalAlign=top;spacingLeft=4;spacingRight=4;overflow=hidden;rotatable=0;points=[[0,0.5],[1,0.5]];portConstraint=eastwest;" vertex="1" parent="_ckGrwLbF2f9QICR6YGw-61">
          <mxGeometry y="78" width="140" height="26" as="geometry" />
        </mxCell>
        <mxCell id="_ckGrwLbF2f9QICR6YGw-65" value="-email: varchar(255)" style="text;strokeColor=none;fillColor=none;align=left;verticalAlign=top;spacingLeft=4;spacingRight=4;overflow=hidden;rotatable=0;points=[[0,0.5],[1,0.5]];portConstraint=eastwest;" vertex="1" parent="_ckGrwLbF2f9QICR6YGw-61">
          <mxGeometry y="104" width="140" height="26" as="geometry" />
        </mxCell>
        <mxCell id="_ckGrwLbF2f9QICR6YGw-66" value="- tel: varchar(255)" style="text;strokeColor=none;fillColor=none;align=left;verticalAlign=top;spacingLeft=4;spacingRight=4;overflow=hidden;rotatable=0;points=[[0,0.5],[1,0.5]];portConstraint=eastwest;" vertex="1" parent="_ckGrwLbF2f9QICR6YGw-61">
          <mxGeometry y="130" width="140" height="26" as="geometry" />
        </mxCell>
        <mxCell id="_ckGrwLbF2f9QICR6YGw-67" value="Booking" style="swimlane;fontStyle=0;childLayout=stackLayout;horizontal=1;startSize=26;fillColor=none;horizontalStack=0;resizeParent=1;resizeParentMax=0;resizeLast=0;collapsible=1;marginBottom=0;" vertex="1" parent="1">
          <mxGeometry x="634" y="1180" width="156" height="208" as="geometry" />
        </mxCell>
        <mxCell id="_ckGrwLbF2f9QICR6YGw-68" value="- id: integer(10)" style="text;strokeColor=none;fillColor=none;align=left;verticalAlign=top;spacingLeft=4;spacingRight=4;overflow=hidden;rotatable=0;points=[[0,0.5],[1,0.5]];portConstraint=eastwest;" vertex="1" parent="_ckGrwLbF2f9QICR6YGw-67">
          <mxGeometry y="26" width="156" height="26" as="geometry" />
        </mxCell>
        <mxCell id="_ckGrwLbF2f9QICR6YGw-69" value="- bookDay: date" style="text;strokeColor=none;fillColor=none;align=left;verticalAlign=top;spacingLeft=4;spacingRight=4;overflow=hidden;rotatable=0;points=[[0,0.5],[1,0.5]];portConstraint=eastwest;" vertex="1" parent="_ckGrwLbF2f9QICR6YGw-67">
          <mxGeometry y="52" width="156" height="26" as="geometry" />
        </mxCell>
        <mxCell id="_ckGrwLbF2f9QICR6YGw-70" value="- totalAmount: integer(10)" style="text;strokeColor=none;fillColor=none;align=left;verticalAlign=top;spacingLeft=4;spacingRight=4;overflow=hidden;rotatable=0;points=[[0,0.5],[1,0.5]];portConstraint=eastwest;" vertex="1" parent="_ckGrwLbF2f9QICR6YGw-67">
          <mxGeometry y="78" width="156" height="26" as="geometry" />
        </mxCell>
        <mxCell id="_ckGrwLbF2f9QICR6YGw-71" value="- note: varchar(255)" style="text;strokeColor=none;fillColor=none;align=left;verticalAlign=top;spacingLeft=4;spacingRight=4;overflow=hidden;rotatable=0;points=[[0,0.5],[1,0.5]];portConstraint=eastwest;" vertex="1" parent="_ckGrwLbF2f9QICR6YGw-67">
          <mxGeometry y="104" width="156" height="26" as="geometry" />
        </mxCell>
        <mxCell id="_ckGrwLbF2f9QICR6YGw-72" value="- tour: bookedTour[]" style="text;strokeColor=none;fillColor=none;align=left;verticalAlign=top;spacingLeft=4;spacingRight=4;overflow=hidden;rotatable=0;points=[[0,0.5],[1,0.5]];portConstraint=eastwest;" vertex="1" parent="_ckGrwLbF2f9QICR6YGw-67">
          <mxGeometry y="130" width="156" height="26" as="geometry" />
        </mxCell>
        <mxCell id="_ckGrwLbF2f9QICR6YGw-73" value="- user: User" style="text;strokeColor=none;fillColor=none;align=left;verticalAlign=top;spacingLeft=4;spacingRight=4;overflow=hidden;rotatable=0;points=[[0,0.5],[1,0.5]];portConstraint=eastwest;" vertex="1" parent="_ckGrwLbF2f9QICR6YGw-67">
          <mxGeometry y="156" width="156" height="26" as="geometry" />
        </mxCell>
        <mxCell id="_ckGrwLbF2f9QICR6YGw-74" value="- client: Client" style="text;strokeColor=none;fillColor=none;align=left;verticalAlign=top;spacingLeft=4;spacingRight=4;overflow=hidden;rotatable=0;points=[[0,0.5],[1,0.5]];portConstraint=eastwest;" vertex="1" parent="_ckGrwLbF2f9QICR6YGw-67">
          <mxGeometry y="182" width="156" height="26" as="geometry" />
        </mxCell>
        <mxCell id="_ckGrwLbF2f9QICR6YGw-75" value="Tour" style="swimlane;fontStyle=0;childLayout=stackLayout;horizontal=1;startSize=26;fillColor=none;horizontalStack=0;resizeParent=1;resizeParentMax=0;resizeLast=0;collapsible=1;marginBottom=0;" vertex="1" parent="1">
          <mxGeometry x="150" y="1196" width="180" height="156" as="geometry" />
        </mxCell>
        <mxCell id="_ckGrwLbF2f9QICR6YGw-76" value="- id: integer(10)" style="text;strokeColor=none;fillColor=none;align=left;verticalAlign=top;spacingLeft=4;spacingRight=4;overflow=hidden;rotatable=0;points=[[0,0.5],[1,0.5]];portConstraint=eastwest;" vertex="1" parent="_ckGrwLbF2f9QICR6YGw-75">
          <mxGeometry y="26" width="180" height="26" as="geometry" />
        </mxCell>
        <mxCell id="_ckGrwLbF2f9QICR6YGw-77" value="- type: varchar(255)" style="text;strokeColor=none;fillColor=none;align=left;verticalAlign=top;spacingLeft=4;spacingRight=4;overflow=hidden;rotatable=0;points=[[0,0.5],[1,0.5]];portConstraint=eastwest;" vertex="1" parent="_ckGrwLbF2f9QICR6YGw-75">
          <mxGeometry y="52" width="180" height="26" as="geometry" />
        </mxCell>
        <mxCell id="_ckGrwLbF2f9QICR6YGw-78" value="- price: float(10)" style="text;strokeColor=none;fillColor=none;align=left;verticalAlign=top;spacingLeft=4;spacingRight=4;overflow=hidden;rotatable=0;points=[[0,0.5],[1,0.5]];portConstraint=eastwest;" vertex="1" parent="_ckGrwLbF2f9QICR6YGw-75">
          <mxGeometry y="78" width="180" height="26" as="geometry" />
        </mxCell>
        <mxCell id="_ckGrwLbF2f9QICR6YGw-79" value="- description: varchar(255)" style="text;strokeColor=none;fillColor=none;align=left;verticalAlign=top;spacingLeft=4;spacingRight=4;overflow=hidden;rotatable=0;points=[[0,0.5],[1,0.5]];portConstraint=eastwest;" vertex="1" parent="_ckGrwLbF2f9QICR6YGw-75">
          <mxGeometry y="104" width="180" height="26" as="geometry" />
        </mxCell>
        <mxCell id="_ckGrwLbF2f9QICR6YGw-80" value="- location: varchar(255)" style="text;strokeColor=none;fillColor=none;align=left;verticalAlign=top;spacingLeft=4;spacingRight=4;overflow=hidden;rotatable=0;points=[[0,0.5],[1,0.5]];portConstraint=eastwest;" vertex="1" parent="_ckGrwLbF2f9QICR6YGw-75">
          <mxGeometry y="130" width="180" height="26" as="geometry" />
        </mxCell>
        <mxCell id="_ckGrwLbF2f9QICR6YGw-81" value="Bill" style="swimlane;fontStyle=0;childLayout=stackLayout;horizontal=1;startSize=26;fillColor=none;horizontalStack=0;resizeParent=1;resizeParentMax=0;resizeLast=0;collapsible=1;marginBottom=0;" vertex="1" parent="1">
          <mxGeometry x="870" y="1141" width="190" height="208" as="geometry" />
        </mxCell>
        <mxCell id="_ckGrwLbF2f9QICR6YGw-82" value="- id: integer(10)" style="text;strokeColor=none;fillColor=none;align=left;verticalAlign=top;spacingLeft=4;spacingRight=4;overflow=hidden;rotatable=0;points=[[0,0.5],[1,0.5]];portConstraint=eastwest;" vertex="1" parent="_ckGrwLbF2f9QICR6YGw-81">
          <mxGeometry y="26" width="190" height="26" as="geometry" />
        </mxCell>
        <mxCell id="_ckGrwLbF2f9QICR6YGw-83" value="- paymentDate: date" style="text;strokeColor=none;fillColor=none;align=left;verticalAlign=top;spacingLeft=4;spacingRight=4;overflow=hidden;rotatable=0;points=[[0,0.5],[1,0.5]];portConstraint=eastwest;" vertex="1" parent="_ckGrwLbF2f9QICR6YGw-81">
          <mxGeometry y="52" width="190" height="26" as="geometry" />
        </mxCell>
        <mxCell id="_ckGrwLbF2f9QICR6YGw-84" value="- amount: integer(10)" style="text;strokeColor=none;fillColor=none;align=left;verticalAlign=top;spacingLeft=4;spacingRight=4;overflow=hidden;rotatable=0;points=[[0,0.5],[1,0.5]];portConstraint=eastwest;" vertex="1" parent="_ckGrwLbF2f9QICR6YGw-81">
          <mxGeometry y="78" width="190" height="26" as="geometry" />
        </mxCell>
        <mxCell id="_ckGrwLbF2f9QICR6YGw-85" value="- paymentType: varchar(255)" style="text;strokeColor=none;fillColor=none;align=left;verticalAlign=top;spacingLeft=4;spacingRight=4;overflow=hidden;rotatable=0;points=[[0,0.5],[1,0.5]];portConstraint=eastwest;" vertex="1" parent="_ckGrwLbF2f9QICR6YGw-81">
          <mxGeometry y="104" width="190" height="26" as="geometry" />
        </mxCell>
        <mxCell id="_ckGrwLbF2f9QICR6YGw-86" value="- note: varchar(255)" style="text;strokeColor=none;fillColor=none;align=left;verticalAlign=top;spacingLeft=4;spacingRight=4;overflow=hidden;rotatable=0;points=[[0,0.5],[1,0.5]];portConstraint=eastwest;" vertex="1" parent="_ckGrwLbF2f9QICR6YGw-81">
          <mxGeometry y="130" width="190" height="26" as="geometry" />
        </mxCell>
        <mxCell id="_ckGrwLbF2f9QICR6YGw-87" value="- booking: Booking" style="text;strokeColor=none;fillColor=none;align=left;verticalAlign=top;spacingLeft=4;spacingRight=4;overflow=hidden;rotatable=0;points=[[0,0.5],[1,0.5]];portConstraint=eastwest;" vertex="1" parent="_ckGrwLbF2f9QICR6YGw-81">
          <mxGeometry y="156" width="190" height="26" as="geometry" />
        </mxCell>
        <mxCell id="_ckGrwLbF2f9QICR6YGw-88" value="- user: User" style="text;strokeColor=none;fillColor=none;align=left;verticalAlign=top;spacingLeft=4;spacingRight=4;overflow=hidden;rotatable=0;points=[[0,0.5],[1,0.5]];portConstraint=eastwest;" vertex="1" parent="_ckGrwLbF2f9QICR6YGw-81">
          <mxGeometry y="182" width="190" height="26" as="geometry" />
        </mxCell>
        <mxCell id="_ckGrwLbF2f9QICR6YGw-89" value="TourStatistic" style="swimlane;fontStyle=0;childLayout=stackLayout;horizontal=1;startSize=26;fillColor=none;horizontalStack=0;resizeParent=1;resizeParentMax=0;resizeLast=0;collapsible=1;marginBottom=0;" vertex="1" parent="1">
          <mxGeometry x="190" y="1431" width="140" height="78" as="geometry" />
        </mxCell>
        <mxCell id="_ckGrwLbF2f9QICR6YGw-90" value="- income: float(10)" style="text;strokeColor=none;fillColor=none;align=left;verticalAlign=top;spacingLeft=4;spacingRight=4;overflow=hidden;rotatable=0;points=[[0,0.5],[1,0.5]];portConstraint=eastwest;" vertex="1" parent="_ckGrwLbF2f9QICR6YGw-89">
          <mxGeometry y="26" width="140" height="26" as="geometry" />
        </mxCell>
        <mxCell id="_ckGrwLbF2f9QICR6YGw-91" value="- created_date: date" style="text;strokeColor=none;fillColor=none;align=left;verticalAlign=top;spacingLeft=4;spacingRight=4;overflow=hidden;rotatable=0;points=[[0,0.5],[1,0.5]];portConstraint=eastwest;" vertex="1" parent="_ckGrwLbF2f9QICR6YGw-89">
          <mxGeometry y="52" width="140" height="26" as="geometry" />
        </mxCell>
        <mxCell id="_ckGrwLbF2f9QICR6YGw-92" value="BookedTour" style="swimlane;fontStyle=0;childLayout=stackLayout;horizontal=1;startSize=26;fillColor=none;horizontalStack=0;resizeParent=1;resizeParentMax=0;resizeLast=0;collapsible=1;marginBottom=0;" vertex="1" parent="1">
          <mxGeometry x="410" y="1196" width="170" height="234" as="geometry" />
        </mxCell>
        <mxCell id="_ckGrwLbF2f9QICR6YGw-93" value="- id: integer(10)" style="text;strokeColor=none;fillColor=none;align=left;verticalAlign=top;spacingLeft=4;spacingRight=4;overflow=hidden;rotatable=0;points=[[0,0.5],[1,0.5]];portConstraint=eastwest;" vertex="1" parent="_ckGrwLbF2f9QICR6YGw-92">
          <mxGeometry y="26" width="170" height="26" as="geometry" />
        </mxCell>
        <mxCell id="_ckGrwLbF2f9QICR6YGw-94" value="- start_date: date" style="text;strokeColor=none;fillColor=none;align=left;verticalAlign=top;spacingLeft=4;spacingRight=4;overflow=hidden;rotatable=0;points=[[0,0.5],[1,0.5]];portConstraint=eastwest;" vertex="1" parent="_ckGrwLbF2f9QICR6YGw-92">
          <mxGeometry y="52" width="170" height="26" as="geometry" />
        </mxCell>
        <mxCell id="_ckGrwLbF2f9QICR6YGw-95" value="- return_date: date" style="text;strokeColor=none;fillColor=none;align=left;verticalAlign=top;spacingLeft=4;spacingRight=4;overflow=hidden;rotatable=0;points=[[0,0.5],[1,0.5]];portConstraint=eastwest;" vertex="1" parent="_ckGrwLbF2f9QICR6YGw-92">
          <mxGeometry y="78" width="170" height="26" as="geometry" />
        </mxCell>
        <mxCell id="_ckGrwLbF2f9QICR6YGw-96" value="- price: float(10)" style="text;strokeColor=none;fillColor=none;align=left;verticalAlign=top;spacingLeft=4;spacingRight=4;overflow=hidden;rotatable=0;points=[[0,0.5],[1,0.5]];portConstraint=eastwest;" vertex="1" parent="_ckGrwLbF2f9QICR6YGw-92">
          <mxGeometry y="104" width="170" height="26" as="geometry" />
        </mxCell>
        <mxCell id="_ckGrwLbF2f9QICR6YGw-97" value="- amount: integer(10)" style="text;strokeColor=none;fillColor=none;align=left;verticalAlign=top;spacingLeft=4;spacingRight=4;overflow=hidden;rotatable=0;points=[[0,0.5],[1,0.5]];portConstraint=eastwest;" vertex="1" parent="_ckGrwLbF2f9QICR6YGw-92">
          <mxGeometry y="130" width="170" height="26" as="geometry" />
        </mxCell>
        <mxCell id="_ckGrwLbF2f9QICR6YGw-98" value="- note: varchar(255)" style="text;strokeColor=none;fillColor=none;align=left;verticalAlign=top;spacingLeft=4;spacingRight=4;overflow=hidden;rotatable=0;points=[[0,0.5],[1,0.5]];portConstraint=eastwest;" vertex="1" parent="_ckGrwLbF2f9QICR6YGw-92">
          <mxGeometry y="156" width="170" height="26" as="geometry" />
        </mxCell>
        <mxCell id="_ckGrwLbF2f9QICR6YGw-99" value="- usedServices: UseService[]" style="text;strokeColor=none;fillColor=none;align=left;verticalAlign=top;spacingLeft=4;spacingRight=4;overflow=hidden;rotatable=0;points=[[0,0.5],[1,0.5]];portConstraint=eastwest;" vertex="1" parent="_ckGrwLbF2f9QICR6YGw-92">
          <mxGeometry y="182" width="170" height="26" as="geometry" />
        </mxCell>
        <mxCell id="_ckGrwLbF2f9QICR6YGw-100" value="- tour: Tour&#xa;" style="text;strokeColor=none;fillColor=none;align=left;verticalAlign=top;spacingLeft=4;spacingRight=4;overflow=hidden;rotatable=0;points=[[0,0.5],[1,0.5]];portConstraint=eastwest;" vertex="1" parent="_ckGrwLbF2f9QICR6YGw-92">
          <mxGeometry y="208" width="170" height="26" as="geometry" />
        </mxCell>
        <mxCell id="_ckGrwLbF2f9QICR6YGw-101" value="User" style="swimlane;fontStyle=0;childLayout=stackLayout;horizontal=1;startSize=26;fillColor=none;horizontalStack=0;resizeParent=1;resizeParentMax=0;resizeLast=0;collapsible=1;marginBottom=0;" vertex="1" parent="1">
          <mxGeometry x="890" y="1403" width="170" height="130" as="geometry" />
        </mxCell>
        <mxCell id="_ckGrwLbF2f9QICR6YGw-102" value="- id: integer(10)" style="text;strokeColor=none;fillColor=none;align=left;verticalAlign=top;spacingLeft=4;spacingRight=4;overflow=hidden;rotatable=0;points=[[0,0.5],[1,0.5]];portConstraint=eastwest;" vertex="1" parent="_ckGrwLbF2f9QICR6YGw-101">
          <mxGeometry y="26" width="170" height="26" as="geometry" />
        </mxCell>
        <mxCell id="_ckGrwLbF2f9QICR6YGw-103" value="- username: varchar(255)" style="text;strokeColor=none;fillColor=none;align=left;verticalAlign=top;spacingLeft=4;spacingRight=4;overflow=hidden;rotatable=0;points=[[0,0.5],[1,0.5]];portConstraint=eastwest;" vertex="1" parent="_ckGrwLbF2f9QICR6YGw-101">
          <mxGeometry y="52" width="170" height="26" as="geometry" />
        </mxCell>
        <mxCell id="_ckGrwLbF2f9QICR6YGw-104" value="- password: varchar(255)" style="text;strokeColor=none;fillColor=none;align=left;verticalAlign=top;spacingLeft=4;spacingRight=4;overflow=hidden;rotatable=0;points=[[0,0.5],[1,0.5]];portConstraint=eastwest;" vertex="1" parent="_ckGrwLbF2f9QICR6YGw-101">
          <mxGeometry y="78" width="170" height="26" as="geometry" />
        </mxCell>
        <mxCell id="_ckGrwLbF2f9QICR6YGw-105" value="- position: varchar(255)" style="text;strokeColor=none;fillColor=none;align=left;verticalAlign=top;spacingLeft=4;spacingRight=4;overflow=hidden;rotatable=0;points=[[0,0.5],[1,0.5]];portConstraint=eastwest;" vertex="1" parent="_ckGrwLbF2f9QICR6YGw-101">
          <mxGeometry y="104" width="170" height="26" as="geometry" />
        </mxCell>
        <mxCell id="_ckGrwLbF2f9QICR6YGw-106" value="" style="endArrow=diamondThin;html=1;exitX=0.486;exitY=1.115;exitDx=0;exitDy=0;exitPerimeter=0;entryX=0.5;entryY=0;entryDx=0;entryDy=0;endFill=0;endSize=31;" edge="1" parent="1" source="_ckGrwLbF2f9QICR6YGw-66" target="_ckGrwLbF2f9QICR6YGw-67">
          <mxGeometry width="50" height="50" relative="1" as="geometry">
            <mxPoint x="500" y="1140" as="sourcePoint" />
            <mxPoint x="550" y="1090" as="targetPoint" />
          </mxGeometry>
        </mxCell>
        <mxCell id="_ckGrwLbF2f9QICR6YGw-107" value="" style="endArrow=diamondThin;html=1;exitX=1;exitY=-0.038;exitDx=0;exitDy=0;exitPerimeter=0;entryX=0;entryY=0.5;entryDx=0;entryDy=0;endFill=0;endSize=31;" edge="1" parent="1" source="_ckGrwLbF2f9QICR6YGw-69" target="_ckGrwLbF2f9QICR6YGw-83">
          <mxGeometry width="50" height="50" relative="1" as="geometry">
            <mxPoint x="712.04" y="1118.99" as="sourcePoint" />
            <mxPoint x="714" y="1190" as="targetPoint" />
          </mxGeometry>
        </mxCell>
        <mxCell id="_ckGrwLbF2f9QICR6YGw-108" value="" style="endArrow=block;html=1;endSize=31;entryX=0.514;entryY=0.962;entryDx=0;entryDy=0;entryPerimeter=0;endFill=0;" edge="1" parent="1" target="_ckGrwLbF2f9QICR6YGw-80">
          <mxGeometry width="50" height="50" relative="1" as="geometry">
            <mxPoint x="270" y="1430" as="sourcePoint" />
            <mxPoint x="720" y="1290" as="targetPoint" />
          </mxGeometry>
        </mxCell>
        <mxCell id="_ckGrwLbF2f9QICR6YGw-109" value="" style="endArrow=diamondThin;html=1;exitX=0.5;exitY=0;exitDx=0;exitDy=0;endFill=0;endSize=31;" edge="1" parent="1" source="_ckGrwLbF2f9QICR6YGw-101">
          <mxGeometry width="50" height="50" relative="1" as="geometry">
            <mxPoint x="784" y="1241.012" as="sourcePoint" />
            <mxPoint x="950" y="1350" as="targetPoint" />
          </mxGeometry>
        </mxCell>
        <mxCell id="_ckGrwLbF2f9QICR6YGw-110" value="" style="endArrow=diamondThin;html=1;exitX=1.021;exitY=0;exitDx=0;exitDy=0;exitPerimeter=0;entryX=0;entryY=0.5;entryDx=0;entryDy=0;endFill=0;endSize=31;" edge="1" parent="1" source="_ckGrwLbF2f9QICR6YGw-78" target="_ckGrwLbF2f9QICR6YGw-95">
          <mxGeometry width="50" height="50" relative="1" as="geometry">
            <mxPoint x="784" y="1241.012" as="sourcePoint" />
            <mxPoint x="880" y="1245" as="targetPoint" />
          </mxGeometry>
        </mxCell>
        <mxCell id="_ckGrwLbF2f9QICR6YGw-111" value="" style="endArrow=diamondThin;html=1;exitX=-0.007;exitY=0.769;exitDx=0;exitDy=0;exitPerimeter=0;entryX=1;entryY=0.5;entryDx=0;entryDy=0;endFill=0;endSize=31;" edge="1" parent="1" source="_ckGrwLbF2f9QICR6YGw-69" target="_ckGrwLbF2f9QICR6YGw-95">
          <mxGeometry width="50" height="50" relative="1" as="geometry">
            <mxPoint x="712.04" y="1118.99" as="sourcePoint" />
            <mxPoint x="714" y="1190" as="targetPoint" />
          </mxGeometry>
        </mxCell>
        <mxCell id="_ckGrwLbF2f9QICR6YGw-112" value="1" style="text;html=1;strokeColor=none;fillColor=none;align=center;verticalAlign=middle;whiteSpace=wrap;rounded=0;" vertex="1" parent="1">
          <mxGeometry x="320" y="1251" width="40" height="20" as="geometry" />
        </mxCell>
        <mxCell id="_ckGrwLbF2f9QICR6YGw-113" value="0..." style="text;html=1;strokeColor=none;fillColor=none;align=center;verticalAlign=middle;whiteSpace=wrap;rounded=0;" vertex="1" parent="1">
          <mxGeometry x="370" y="1290" width="40" height="20" as="geometry" />
        </mxCell>
        <mxCell id="_ckGrwLbF2f9QICR6YGw-114" value="1" style="text;html=1;strokeColor=none;fillColor=none;align=center;verticalAlign=middle;whiteSpace=wrap;rounded=0;" vertex="1" parent="1">
          <mxGeometry x="600" y="1231" width="40" height="20" as="geometry" />
        </mxCell>
        <mxCell id="_ckGrwLbF2f9QICR6YGw-115" value="0..." style="text;html=1;strokeColor=none;fillColor=none;align=center;verticalAlign=middle;whiteSpace=wrap;rounded=0;" vertex="1" parent="1">
          <mxGeometry x="580" y="1290" width="40" height="20" as="geometry" />
        </mxCell>
        <mxCell id="_ckGrwLbF2f9QICR6YGw-116" value="1" style="text;html=1;strokeColor=none;fillColor=none;align=center;verticalAlign=middle;whiteSpace=wrap;rounded=0;" vertex="1" parent="1">
          <mxGeometry x="780" y="1211" width="40" height="20" as="geometry" />
        </mxCell>
        <mxCell id="_ckGrwLbF2f9QICR6YGw-117" value="0..." style="text;html=1;strokeColor=none;fillColor=none;align=center;verticalAlign=middle;whiteSpace=wrap;rounded=0;" vertex="1" parent="1">
          <mxGeometry x="830" y="1231" width="40" height="20" as="geometry" />
        </mxCell>
        <mxCell id="_ckGrwLbF2f9QICR6YGw-118" value="1" style="text;html=1;strokeColor=none;fillColor=none;align=center;verticalAlign=middle;whiteSpace=wrap;rounded=0;" vertex="1" parent="1">
          <mxGeometry x="980" y="1383" width="40" height="20" as="geometry" />
        </mxCell>
        <mxCell id="_ckGrwLbF2f9QICR6YGw-119" value="0..." style="text;html=1;strokeColor=none;fillColor=none;align=center;verticalAlign=middle;whiteSpace=wrap;rounded=0;" vertex="1" parent="1">
          <mxGeometry x="910" y="1358" width="40" height="20" as="geometry" />
        </mxCell>
        <mxCell id="_ckGrwLbF2f9QICR6YGw-120" value="1" style="text;html=1;strokeColor=none;fillColor=none;align=center;verticalAlign=middle;whiteSpace=wrap;rounded=0;" vertex="1" parent="1">
          <mxGeometry x="660" y="1106" width="40" height="20" as="geometry" />
        </mxCell>
        <mxCell id="_ckGrwLbF2f9QICR6YGw-121" value="0..." style="text;html=1;strokeColor=none;fillColor=none;align=center;verticalAlign=middle;whiteSpace=wrap;rounded=0;" vertex="1" parent="1">
          <mxGeometry x="715" y="1160" width="40" height="20" as="geometry" />
        </mxCell>
        <mxCell id="_ckGrwLbF2f9QICR6YGw-122" value="UsedService" style="swimlane;fontStyle=0;childLayout=stackLayout;horizontal=1;startSize=26;fillColor=none;horizontalStack=0;resizeParent=1;resizeParentMax=0;resizeLast=0;collapsible=1;marginBottom=0;" vertex="1" parent="1">
          <mxGeometry x="410" y="960" width="140" height="156" as="geometry" />
        </mxCell>
        <mxCell id="_ckGrwLbF2f9QICR6YGw-123" value="- id: integer(10)" style="text;strokeColor=none;fillColor=none;align=left;verticalAlign=top;spacingLeft=4;spacingRight=4;overflow=hidden;rotatable=0;points=[[0,0.5],[1,0.5]];portConstraint=eastwest;" vertex="1" parent="_ckGrwLbF2f9QICR6YGw-122">
          <mxGeometry y="26" width="140" height="26" as="geometry" />
        </mxCell>
        <mxCell id="_ckGrwLbF2f9QICR6YGw-124" value="- service: Service" style="text;strokeColor=none;fillColor=none;align=left;verticalAlign=top;spacingLeft=4;spacingRight=4;overflow=hidden;rotatable=0;points=[[0,0.5],[1,0.5]];portConstraint=eastwest;" vertex="1" parent="_ckGrwLbF2f9QICR6YGw-122">
          <mxGeometry y="52" width="140" height="26" as="geometry" />
        </mxCell>
        <mxCell id="_ckGrwLbF2f9QICR6YGw-125" value="- price: float" style="text;strokeColor=none;fillColor=none;align=left;verticalAlign=top;spacingLeft=4;spacingRight=4;overflow=hidden;rotatable=0;points=[[0,0.5],[1,0.5]];portConstraint=eastwest;" vertex="1" parent="_ckGrwLbF2f9QICR6YGw-122">
          <mxGeometry y="78" width="140" height="26" as="geometry" />
        </mxCell>
        <mxCell id="_ckGrwLbF2f9QICR6YGw-126" value="- quantity: int" style="text;strokeColor=none;fillColor=none;align=left;verticalAlign=top;spacingLeft=4;spacingRight=4;overflow=hidden;rotatable=0;points=[[0,0.5],[1,0.5]];portConstraint=eastwest;" vertex="1" parent="_ckGrwLbF2f9QICR6YGw-122">
          <mxGeometry y="104" width="140" height="26" as="geometry" />
        </mxCell>
        <mxCell id="_ckGrwLbF2f9QICR6YGw-127" value="- totalAmount: float" style="text;strokeColor=none;fillColor=none;align=left;verticalAlign=top;spacingLeft=4;spacingRight=4;overflow=hidden;rotatable=0;points=[[0,0.5],[1,0.5]];portConstraint=eastwest;" vertex="1" parent="_ckGrwLbF2f9QICR6YGw-122">
          <mxGeometry y="130" width="140" height="26" as="geometry" />
        </mxCell>
        <mxCell id="_ckGrwLbF2f9QICR6YGw-128" value="Service" style="swimlane;fontStyle=0;childLayout=stackLayout;horizontal=1;startSize=26;fillColor=none;horizontalStack=0;resizeParent=1;resizeParentMax=0;resizeLast=0;collapsible=1;marginBottom=0;" vertex="1" parent="1">
          <mxGeometry x="160" y="960" width="140" height="130" as="geometry" />
        </mxCell>
        <mxCell id="_ckGrwLbF2f9QICR6YGw-129" value="- id: integer(10)" style="text;strokeColor=none;fillColor=none;align=left;verticalAlign=top;spacingLeft=4;spacingRight=4;overflow=hidden;rotatable=0;points=[[0,0.5],[1,0.5]];portConstraint=eastwest;" vertex="1" parent="_ckGrwLbF2f9QICR6YGw-128">
          <mxGeometry y="26" width="140" height="26" as="geometry" />
        </mxCell>
        <mxCell id="_ckGrwLbF2f9QICR6YGw-130" value="- name: varchar(255)" style="text;strokeColor=none;fillColor=none;align=left;verticalAlign=top;spacingLeft=4;spacingRight=4;overflow=hidden;rotatable=0;points=[[0,0.5],[1,0.5]];portConstraint=eastwest;" vertex="1" parent="_ckGrwLbF2f9QICR6YGw-128">
          <mxGeometry y="52" width="140" height="26" as="geometry" />
        </mxCell>
        <mxCell id="_ckGrwLbF2f9QICR6YGw-131" value="- unity: varchar(255)" style="text;strokeColor=none;fillColor=none;align=left;verticalAlign=top;spacingLeft=4;spacingRight=4;overflow=hidden;rotatable=0;points=[[0,0.5],[1,0.5]];portConstraint=eastwest;" vertex="1" parent="_ckGrwLbF2f9QICR6YGw-128">
          <mxGeometry y="78" width="140" height="26" as="geometry" />
        </mxCell>
        <mxCell id="_ckGrwLbF2f9QICR6YGw-132" value="- price: float(10)" style="text;strokeColor=none;fillColor=none;align=left;verticalAlign=top;spacingLeft=4;spacingRight=4;overflow=hidden;rotatable=0;points=[[0,0.5],[1,0.5]];portConstraint=eastwest;" vertex="1" parent="_ckGrwLbF2f9QICR6YGw-128">
          <mxGeometry y="104" width="140" height="26" as="geometry" />
        </mxCell>
        <mxCell id="_ckGrwLbF2f9QICR6YGw-133" value="" style="endArrow=diamondThin;html=1;exitX=1.029;exitY=0.077;exitDx=0;exitDy=0;exitPerimeter=0;entryX=0;entryY=0.5;entryDx=0;entryDy=0;endFill=0;endSize=31;" edge="1" parent="1" source="_ckGrwLbF2f9QICR6YGw-131" target="_ckGrwLbF2f9QICR6YGw-125">
          <mxGeometry width="50" height="50" relative="1" as="geometry">
            <mxPoint x="343.77999999999975" y="1284" as="sourcePoint" />
            <mxPoint x="420" y="1297" as="targetPoint" />
            <Array as="points">
              <mxPoint x="344" y="1040" />
            </Array>
          </mxGeometry>
        </mxCell>
        <mxCell id="_ckGrwLbF2f9QICR6YGw-134" value="1" style="text;html=1;strokeColor=none;fillColor=none;align=center;verticalAlign=middle;whiteSpace=wrap;rounded=0;" vertex="1" parent="1">
          <mxGeometry x="290" y="1015" width="40" height="20" as="geometry" />
        </mxCell>
        <mxCell id="_ckGrwLbF2f9QICR6YGw-135" value="0..." style="text;html=1;strokeColor=none;fillColor=none;align=center;verticalAlign=middle;whiteSpace=wrap;rounded=0;" vertex="1" parent="1">
          <mxGeometry x="360" y="1018" width="40" height="20" as="geometry" />
        </mxCell>
        <mxCell id="_ckGrwLbF2f9QICR6YGw-136" value="" style="endArrow=diamondThin;html=1;exitX=0.429;exitY=1.154;exitDx=0;exitDy=0;exitPerimeter=0;entryX=0.45;entryY=0;entryDx=0;entryDy=0;endFill=0;endSize=31;entryPerimeter=0;" edge="1" parent="1" source="_ckGrwLbF2f9QICR6YGw-127" target="_ckGrwLbF2f9QICR6YGw-92">
          <mxGeometry width="50" height="50" relative="1" as="geometry">
            <mxPoint x="314.05999999999995" y="1050.002" as="sourcePoint" />
            <mxPoint x="420" y="1061" as="targetPoint" />
            <Array as="points" />
          </mxGeometry>
        </mxCell>
        <mxCell id="_ckGrwLbF2f9QICR6YGw-137" value="1" style="text;html=1;strokeColor=none;fillColor=none;align=center;verticalAlign=middle;whiteSpace=wrap;rounded=0;" vertex="1" parent="1">
          <mxGeometry x="480" y="1170" width="40" height="20" as="geometry" />
        </mxCell>
        <mxCell id="_ckGrwLbF2f9QICR6YGw-138" value="0..." style="text;html=1;strokeColor=none;fillColor=none;align=center;verticalAlign=middle;whiteSpace=wrap;rounded=0;" vertex="1" parent="1">
          <mxGeometry x="480" y="1126" width="40" height="20" as="geometry" />
        </mxCell>
        <mxCell id="_ckGrwLbF2f9QICR6YGw-139" value="" style="endArrow=diamondThin;html=1;exitX=-0.018;exitY=0.231;exitDx=0;exitDy=0;exitPerimeter=0;endFill=0;endSize=31;entryX=0.635;entryY=1.115;entryDx=0;entryDy=0;entryPerimeter=0;" edge="1" parent="1" source="_ckGrwLbF2f9QICR6YGw-103" target="_ckGrwLbF2f9QICR6YGw-74">
          <mxGeometry width="50" height="50" relative="1" as="geometry">
            <mxPoint x="800" y="1241.012" as="sourcePoint" />
            <mxPoint x="780" y="1468" as="targetPoint" />
            <Array as="points">
              <mxPoint x="800" y="1450" />
            </Array>
          </mxGeometry>
        </mxCell>
        <mxCell id="_ckGrwLbF2f9QICR6YGw-140" value="1" style="text;html=1;strokeColor=none;fillColor=none;align=center;verticalAlign=middle;whiteSpace=wrap;rounded=0;" vertex="1" parent="1">
          <mxGeometry x="715" y="1420" width="40" height="20" as="geometry" />
        </mxCell>
        <mxCell id="_ckGrwLbF2f9QICR6YGw-141" value="0..." style="text;html=1;strokeColor=none;fillColor=none;align=center;verticalAlign=middle;whiteSpace=wrap;rounded=0;" vertex="1" parent="1">
          <mxGeometry x="850" y="1460" width="40" height="20" as="geometry" />
        </mxCell>
        <mxCell id="_ckGrwLbF2f9QICR6YGw-142" value="" style="endArrow=none;html=1;entryX=0;entryY=0.5;entryDx=0;entryDy=0;exitX=0.605;exitY=1.034;exitDx=0;exitDy=0;exitPerimeter=0;" edge="1" parent="1" source="_ckGrwLbF2f9QICR6YGw-105" target="_ckGrwLbF2f9QICR6YGw-25">
          <mxGeometry width="50" height="50" relative="1" as="geometry">
            <mxPoint x="990" y="1600" as="sourcePoint" />
            <mxPoint x="130" y="790" as="targetPoint" />
            <Array as="points">
              <mxPoint x="1010" y="1630" />
              <mxPoint x="70" y="1620" />
              <mxPoint x="80" y="700" />
            </Array>
          </mxGeometry>
        </mxCell>
        <mxCell id="_ckGrwLbF2f9QICR6YGw-143" value="" style="endArrow=none;html=1;entryX=0;entryY=0.333;entryDx=0;entryDy=0;entryPerimeter=0;exitX=-0.021;exitY=1.102;exitDx=0;exitDy=0;exitPerimeter=0;" edge="1" parent="1" source="_ckGrwLbF2f9QICR6YGw-90" target="_ckGrwLbF2f9QICR6YGw-44">
          <mxGeometry width="50" height="50" relative="1" as="geometry">
            <mxPoint x="120" y="1520" as="sourcePoint" />
            <mxPoint x="360" y="810" as="targetPoint" />
            <Array as="points">
              <mxPoint x="90" y="1500" />
              <mxPoint x="120" y="850" />
            </Array>
          </mxGeometry>
        </mxCell>
        <mxCell id="_ckGrwLbF2f9QICR6YGw-144" value="" style="endArrow=none;html=1;exitX=1.019;exitY=0.034;exitDx=0;exitDy=0;exitPerimeter=0;entryX=0.806;entryY=0.995;entryDx=0;entryDy=0;entryPerimeter=0;" edge="1" parent="1" source="_ckGrwLbF2f9QICR6YGw-44" target="lw_hR1VUG7vaAbUGU-Iq-26">
          <mxGeometry width="50" height="50" relative="1" as="geometry">
            <mxPoint x="940" y="810" as="sourcePoint" />
            <mxPoint x="990" y="760" as="targetPoint" />
            <Array as="points">
              <mxPoint x="940" y="740" />
            </Array>
          </mxGeometry>
        </mxCell>
        <object label="BookingDAO" txtPW="JTextField" id="_ckGrwLbF2f9QICR6YGw-145">
          <mxCell style="swimlane;fontStyle=1;align=center;verticalAlign=top;childLayout=stackLayout;horizontal=1;startSize=26;horizontalStack=0;resizeParent=1;resizeParentMax=0;resizeLast=0;collapsible=1;marginBottom=0;" vertex="1" parent="1">
            <mxGeometry x="990" y="790" width="360" height="68" as="geometry" />
          </mxCell>
        </object>
        <mxCell id="_ckGrwLbF2f9QICR6YGw-146" value="- BookingDAO()&#xa;- getBookingByTour(idt: int, sd: Date, ed: Date): Booking[]" style="text;strokeColor=none;fillColor=none;align=left;verticalAlign=top;spacingLeft=4;spacingRight=4;overflow=hidden;rotatable=0;points=[[0,0.5],[1,0.5]];portConstraint=eastwest;" vertex="1" parent="_ckGrwLbF2f9QICR6YGw-145">
          <mxGeometry y="26" width="360" height="42" as="geometry" />
        </mxCell>
        <mxCell id="_ckGrwLbF2f9QICR6YGw-147" value="" style="endArrow=none;html=1;entryX=0.178;entryY=1.098;entryDx=0;entryDy=0;entryPerimeter=0;exitX=0.883;exitY=-0.018;exitDx=0;exitDy=0;exitPerimeter=0;" edge="1" parent="1" source="_ckGrwLbF2f9QICR6YGw-67" target="_ckGrwLbF2f9QICR6YGw-146">
          <mxGeometry width="50" height="50" relative="1" as="geometry">
            <mxPoint x="980" y="1000" as="sourcePoint" />
            <mxPoint x="1030" y="950" as="targetPoint" />
          </mxGeometry>
        </mxCell>
        <mxCell id="_ckGrwLbF2f9QICR6YGw-148" value="" style="endArrow=none;html=1;entryX=0.324;entryY=1.192;entryDx=0;entryDy=0;entryPerimeter=0;exitX=0.407;exitY=-0.064;exitDx=0;exitDy=0;exitPerimeter=0;" edge="1" parent="1" source="_ckGrwLbF2f9QICR6YGw-145" target="_ckGrwLbF2f9QICR6YGw-6">
          <mxGeometry width="50" height="50" relative="1" as="geometry">
            <mxPoint x="930" y="650" as="sourcePoint" />
            <mxPoint x="980" y="600" as="targetPoint" />
          </mxGeometry>
        </mxCell>
        <mxCell id="_ckGrwLbF2f9QICR6YGw-150" value="" style="endArrow=block;endFill=0;endSize=12;html=1;entryX=1.012;entryY=0.168;entryDx=0;entryDy=0;entryPerimeter=0;exitX=0.152;exitY=-0.029;exitDx=0;exitDy=0;exitPerimeter=0;" edge="1" parent="1" source="_ckGrwLbF2f9QICR6YGw-145" target="_ckGrwLbF2f9QICR6YGw-20">
          <mxGeometry width="160" relative="1" as="geometry">
            <mxPoint x="776.1600000000003" y="796.7360000000003" as="sourcePoint" />
            <mxPoint x="759.1200000000003" y="742.4359999999997" as="targetPoint" />
          </mxGeometry>
        </mxCell>
        <mxCell id="_ckGrwLbF2f9QICR6YGw-151" value="" style="endArrow=none;html=1;entryX=0.64;entryY=1.055;entryDx=0;entryDy=0;entryPerimeter=0;exitX=0.75;exitY=0;exitDx=0;exitDy=0;" edge="1" parent="1" source="_ckGrwLbF2f9QICR6YGw-3" target="_ckGrwLbF2f9QICR6YGw-14">
          <mxGeometry width="50" height="50" relative="1" as="geometry">
            <mxPoint x="1320" y="270" as="sourcePoint" />
            <mxPoint x="1370" y="220" as="targetPoint" />
          </mxGeometry>
        </mxCell>
        <object label="BillDAO" txtPW="JTextField" id="_ckGrwLbF2f9QICR6YGw-152">
          <mxCell style="swimlane;fontStyle=1;align=center;verticalAlign=top;childLayout=stackLayout;horizontal=1;startSize=26;horizontalStack=0;resizeParent=1;resizeParentMax=0;resizeLast=0;collapsible=1;marginBottom=0;" vertex="1" parent="1">
            <mxGeometry x="1070" y="940" width="190" height="68" as="geometry" />
          </mxCell>
        </object>
        <mxCell id="_ckGrwLbF2f9QICR6YGw-153" value="- BillDAO()&#xa;- getBill(idb: int)" style="text;strokeColor=none;fillColor=none;align=left;verticalAlign=top;spacingLeft=4;spacingRight=4;overflow=hidden;rotatable=0;points=[[0,0.5],[1,0.5]];portConstraint=eastwest;" vertex="1" parent="_ckGrwLbF2f9QICR6YGw-152">
          <mxGeometry y="26" width="190" height="42" as="geometry" />
        </mxCell>
        <mxCell id="_ckGrwLbF2f9QICR6YGw-154" value="" style="endArrow=none;html=1;entryX=0.61;entryY=1.028;entryDx=0;entryDy=0;entryPerimeter=0;exitX=1.031;exitY=0.803;exitDx=0;exitDy=0;exitPerimeter=0;" edge="1" parent="1" source="_ckGrwLbF2f9QICR6YGw-83" target="_ckGrwLbF2f9QICR6YGw-153">
          <mxGeometry width="50" height="50" relative="1" as="geometry">
            <mxPoint x="1180" y="1190" as="sourcePoint" />
            <mxPoint x="1230" y="1140" as="targetPoint" />
            <Array as="points">
              <mxPoint x="1170" y="1150" />
            </Array>
          </mxGeometry>
        </mxCell>
        <mxCell id="_ckGrwLbF2f9QICR6YGw-155" value="" style="endArrow=none;html=1;entryX=0.927;entryY=1.033;entryDx=0;entryDy=0;entryPerimeter=0;exitX=1.006;exitY=0.328;exitDx=0;exitDy=0;exitPerimeter=0;" edge="1" parent="1" source="_ckGrwLbF2f9QICR6YGw-153" target="_ckGrwLbF2f9QICR6YGw-14">
          <mxGeometry width="50" height="50" relative="1" as="geometry">
            <mxPoint x="1430" y="1070" as="sourcePoint" />
            <mxPoint x="1530" y="630" as="targetPoint" />
            <Array as="points">
              <mxPoint x="1410" y="980" />
            </Array>
          </mxGeometry>
        </mxCell>
        <mxCell id="_ckGrwLbF2f9QICR6YGw-157" value="" style="endArrow=block;dashed=1;endFill=0;endSize=12;html=1;exitX=0;exitY=0.076;exitDx=0;exitDy=0;exitPerimeter=0;entryX=1.009;entryY=0.15;entryDx=0;entryDy=0;entryPerimeter=0;" edge="1" parent="1" source="_ckGrwLbF2f9QICR6YGw-12" target="lw_hR1VUG7vaAbUGU-Iq-11">
          <mxGeometry width="160" relative="1" as="geometry">
            <mxPoint x="880" y="-50" as="sourcePoint" />
            <mxPoint x="1040" y="-50" as="targetPoint" />
          </mxGeometry>
        </mxCell>
        <mxCell id="_ckGrwLbF2f9QICR6YGw-158" value="" style="endArrow=block;endFill=0;endSize=12;html=1;rounded=0;edgeStyle=orthogonalEdgeStyle;exitX=0;exitY=0.785;exitDx=0;exitDy=0;entryX=1;entryY=1;entryDx=0;entryDy=0;exitPerimeter=0;" edge="1" parent="1" source="_ckGrwLbF2f9QICR6YGw-12" target="lw_hR1VUG7vaAbUGU-Iq-5">
          <mxGeometry width="160" relative="1" as="geometry">
            <mxPoint x="1209.9999999999995" y="320" as="sourcePoint" />
            <mxPoint x="504.99999999999955" y="42.00000000000023" as="targetPoint" />
          </mxGeometry>
        </mxCell>
      </root>
    </mxGraphModel>
  </diagram>
</mxfile>
